<svg xmlns="http://www.w3.org/2000/svg" xmlns:xlink="http://www.w3.org/1999/xlink" width="300" zoomAndPan="magnify" viewBox="0 0 224.87999 299.999988" height="400" preserveAspectRatio="xMidYMid meet" version="1.0"><defs><clipPath id="f3fe8415b6"><path d="M 39 70.054688 L 202.042969 70.054688 L 202.042969 229.71875 L 39 229.71875 Z M 39 70.054688 " clip-rule="nonzero"/></clipPath><clipPath id="00e695489b"><path d="M 39 83 L 164 83 L 164 229.71875 L 39 229.71875 Z M 39 83 " clip-rule="nonzero"/></clipPath><clipPath id="09eac8817a"><path d="M 43 70.054688 L 202.042969 70.054688 L 202.042969 225 L 43 225 Z M 43 70.054688 " clip-rule="nonzero"/></clipPath></defs><g clip-path="url(#f3fe8415b6)"><path fill="#ffffff" d="M 175.691406 149.277344 L 173.402344 151.460938 C 174.785156 153.484375 176.0625 155.613281 177.234375 157.902344 C 188.308594 179.46875 184.582031 203.53125 168.980469 211.519531 C 168.128906 211.945312 167.277344 212.316406 166.375 212.636719 L 166.691406 214.605469 L 166.691406 214.660156 C 166.691406 217.269531 165.628906 219.613281 163.976562 221.316406 C 162.273438 223.710938 159.71875 225.789062 156.628906 227.863281 C 156.203125 228.183594 155.722656 228.449219 155.246094 228.714844 C 153.382812 229.515625 151.304688 229.941406 149.28125 229.941406 L 67.023438 229.941406 C 62.496094 229.941406 58.664062 226.585938 58.132812 222.113281 L 57.707031 218.652344 L 39.65625 102.476562 C 38.644531 96.25 40.722656 89.964844 45.191406 85.546875 C 46.097656 84.695312 47.054688 83.949219 47.960938 83.417969 C 49.503906 82.300781 51.421875 81.605469 53.5 81.605469 L 76.820312 81.605469 L 76.605469 80.542969 C 76.605469 79.851562 78.417969 77.773438 79.585938 77.1875 C 79.800781 76.441406 80.546875 75.910156 81.34375 76.015625 L 85.125 76.015625 C 85.179688 76.015625 85.179688 75.964844 85.230469 75.964844 C 86.777344 72.503906 92.632812 70.054688 99.289062 70.054688 C 105.996094 70.054688 111.851562 72.554688 113.449219 76.015625 L 118.347656 76.015625 C 119.253906 75.910156 120 76.550781 120.160156 77.453125 L 121.011719 81.660156 L 137.941406 81.660156 C 141.402344 81.660156 144.382812 83.523438 146.085938 86.238281 C 149.390625 87.199219 152.582031 88.953125 155.351562 91.5625 C 159.398438 95.34375 161.953125 100.296875 162.488281 105.511719 C 163.019531 110.730469 161.527344 115.574219 158.171875 119.144531 C 156.578125 120.898438 154.605469 122.230469 152.421875 123.082031 C 152.421875 123.082031 152.421875 123.082031 152.371094 123.082031 L 154.128906 134.210938 C 160.039062 137.085938 165.734375 141.664062 170.578125 147.628906 L 172.390625 145.871094 L 172.28125 139.003906 L 191.449219 119.25 L 191.183594 130.21875 L 202.363281 130.269531 L 183.675781 149.277344 Z M 175.691406 149.277344 " fill-opacity="1" fill-rule="nonzero"/></g><g clip-path="url(#00e695489b)"><path fill="#5e17eb" d="M 72.667969 224.191406 C 67.449219 224.191406 63.1875 219.929688 63.136719 214.714844 L 43.96875 91.242188 L 43.96875 91.191406 C 43.96875 87.996094 45.566406 85.175781 47.960938 83.472656 C 47.054688 83.949219 46.097656 84.695312 45.191406 85.601562 C 40.667969 89.964844 38.644531 96.300781 39.65625 102.476562 L 57.707031 218.601562 L 58.132812 222.0625 C 58.714844 226.535156 62.496094 229.886719 67.023438 229.886719 L 149.230469 229.886719 C 151.304688 229.886719 153.328125 229.515625 155.191406 228.664062 C 155.671875 228.398438 156.152344 228.128906 156.578125 227.8125 C 159.664062 225.734375 162.21875 223.660156 163.925781 221.261719 C 162.21875 223.019531 159.769531 224.136719 157.164062 224.136719 L 72.667969 224.136719 Z M 72.667969 224.191406 " fill-opacity="1" fill-rule="nonzero"/></g><path fill="#5e17eb" d="M 86.457031 130.429688 L 119.09375 130.429688 L 119.09375 131.496094 L 86.457031 131.496094 Z M 86.457031 130.429688 " fill-opacity="1" fill-rule="nonzero"/><path fill="#5e17eb" d="M 86.457031 112.328125 L 119.09375 112.328125 L 119.09375 113.394531 L 86.457031 113.394531 Z M 86.457031 112.328125 " fill-opacity="1" fill-rule="nonzero"/><path fill="#5e17eb" d="M 109.9375 151.089844 L 88.957031 151.089844 L 88.957031 152.152344 L 109.5625 152.152344 C 109.722656 151.78125 109.828125 151.460938 109.9375 151.089844 Z M 109.9375 151.089844 " fill-opacity="1" fill-rule="nonzero"/><path fill="#5e17eb" d="M 108.605469 173.238281 L 91.992188 173.238281 L 91.992188 174.300781 L 108.765625 174.300781 C 108.710938 173.984375 108.65625 173.609375 108.605469 173.238281 Z M 108.605469 173.238281 " fill-opacity="1" fill-rule="nonzero"/><path fill="#5e17eb" d="M 120.105469 199.007812 L 96.464844 199.007812 L 96.464844 200.070312 L 120.957031 200.070312 C 120.691406 199.699219 120.425781 199.378906 120.105469 199.007812 Z M 120.105469 199.007812 " fill-opacity="1" fill-rule="nonzero"/><path fill="#5e17eb" d="M 80.8125 78.890625 L 81.398438 81.714844 L 81.609375 82.777344 L 82.035156 84.960938 L 83.207031 90.710938 C 83.261719 91.085938 83.527344 91.296875 83.847656 91.242188 L 121.117188 91.242188 C 121.222656 91.242188 121.277344 91.242188 121.382812 91.191406 C 121.542969 91.136719 121.703125 90.976562 121.753906 90.816406 L 121.753906 90.710938 L 121.328125 88.6875 L 121.117188 87.675781 L 120.105469 82.726562 L 120 82.191406 L 119.890625 81.660156 L 119.09375 77.613281 C 119.039062 77.242188 118.773438 77.027344 118.453125 77.082031 L 112.757812 77.082031 L 112.652344 76.707031 C 111.425781 73.515625 105.835938 71.117188 99.289062 71.117188 C 94.121094 71.117188 89.542969 72.609375 87.253906 74.84375 C 86.933594 75.164062 86.667969 75.429688 86.457031 75.804688 C 86.296875 76.070312 86.136719 76.335938 85.976562 76.65625 C 85.976562 76.707031 85.921875 76.707031 85.921875 76.761719 L 85.816406 77.136719 L 81.132812 77.136719 C 80.917969 77.136719 80.707031 77.1875 80.597656 77.402344 C 80.546875 77.453125 80.546875 77.507812 80.492188 77.613281 L 80.597656 78.144531 Z M 80.8125 78.890625 " fill-opacity="1" fill-rule="nonzero"/><path fill="#5e17eb" d="M 70.484375 136.5 C 71.972656 136.554688 73.304688 136.019531 74.210938 135.0625 C 75.433594 133.730469 75.699219 131.816406 75.117188 130.003906 C 74.902344 130.269531 74.691406 130.484375 74.421875 130.75 C 73.359375 131.921875 72.398438 133.199219 71.441406 134.425781 C 70.910156 135.117188 70.003906 134.957031 69.472656 134.15625 C 69.046875 133.519531 68.671875 132.878906 68.195312 132.347656 C 67.769531 131.867188 67.289062 131.441406 66.808594 131.070312 C 66.648438 130.910156 66.488281 130.695312 66.488281 130.539062 C 66.542969 130.003906 66.648438 129.417969 66.808594 128.886719 C 66.863281 128.671875 67.074219 128.566406 67.289062 128.621094 C 67.34375 128.621094 67.34375 128.621094 67.394531 128.671875 C 68.78125 129.257812 69.417969 130.429688 70.109375 131.65625 C 70.21875 131.867188 70.484375 131.976562 70.75 131.867188 C 70.75 131.867188 70.804688 131.867188 70.804688 131.816406 C 71.546875 131.121094 72.292969 130.429688 72.984375 129.792969 C 73.464844 129.367188 73.945312 128.941406 74.421875 128.566406 C 74.15625 128.140625 73.785156 127.714844 73.410156 127.34375 C 72.242188 126.222656 70.75 125.585938 69.257812 125.53125 C 69.207031 125.53125 69.097656 125.53125 69.046875 125.53125 C 67.660156 125.53125 66.382812 126.066406 65.53125 126.96875 C 63.613281 129.046875 63.988281 132.558594 66.4375 134.796875 C 67.5 135.808594 68.992188 136.445312 70.484375 136.5 Z M 70.484375 136.5 " fill-opacity="1" fill-rule="nonzero"/><path fill="#5e17eb" d="M 70.484375 151.140625 C 70.535156 151.140625 70.535156 151.140625 70.589844 151.195312 C 71.335938 151.515625 71.867188 152.046875 72.347656 152.632812 C 72.71875 153.113281 72.984375 153.644531 73.304688 154.175781 C 73.359375 154.335938 73.519531 154.390625 73.679688 154.390625 C 73.785156 154.390625 73.835938 154.390625 73.945312 154.335938 C 73.945312 154.335938 73.996094 154.335938 73.996094 154.285156 C 74.742188 153.589844 75.488281 152.898438 76.179688 152.261719 C 76.554688 151.886719 76.980469 151.566406 77.40625 151.195312 C 77.191406 150.875 76.871094 150.554688 76.605469 150.289062 C 75.542969 149.277344 74.210938 148.691406 72.878906 148.53125 C 72.71875 148.53125 72.613281 148.480469 72.453125 148.480469 C 72.242188 148.480469 72.027344 148.480469 71.8125 148.480469 C 70.589844 148.585938 69.523438 149.066406 68.726562 149.917969 C 66.808594 151.992188 67.183594 155.507812 69.632812 157.742188 C 70.695312 158.753906 72.027344 159.339844 73.359375 159.5 C 73.519531 159.5 73.625 159.554688 73.785156 159.554688 C 73.996094 159.554688 74.210938 159.554688 74.421875 159.554688 C 75.648438 159.449219 76.710938 158.96875 77.511719 158.117188 C 78.84375 156.679688 79.054688 154.601562 78.308594 152.6875 C 78.148438 152.898438 77.9375 153.058594 77.777344 153.273438 C 76.710938 154.441406 75.753906 155.722656 74.796875 156.945312 C 74.636719 157.160156 74.421875 157.265625 74.210938 157.316406 C 73.835938 157.425781 73.410156 157.265625 73.09375 156.945312 C 72.984375 156.839844 72.933594 156.785156 72.878906 156.679688 C 72.453125 156.039062 72.082031 155.402344 71.601562 154.867188 C 71.175781 154.390625 70.695312 153.964844 70.21875 153.589844 C 70.058594 153.429688 69.898438 153.21875 69.898438 153.058594 C 69.949219 152.527344 70.058594 151.941406 70.21875 151.40625 C 70.109375 151.195312 70.269531 151.089844 70.484375 151.140625 Z M 70.484375 151.140625 " fill-opacity="1" fill-rule="nonzero"/><path fill="#5e17eb" d="M 76.554688 182.769531 C 76.710938 182.769531 76.820312 182.820312 76.980469 182.820312 C 77.191406 182.820312 77.40625 182.820312 77.617188 182.820312 C 78.84375 182.714844 79.90625 182.234375 80.707031 181.382812 C 82.621094 179.308594 82.25 175.792969 79.800781 173.558594 C 78.734375 172.546875 77.40625 171.960938 76.074219 171.800781 C 75.914062 171.800781 75.808594 171.746094 75.648438 171.746094 C 75.59375 171.746094 75.488281 171.746094 75.433594 171.746094 C 75.273438 171.746094 75.117188 171.746094 74.957031 171.746094 C 73.730469 171.851562 72.667969 172.332031 71.867188 173.183594 C 69.949219 175.261719 70.324219 178.773438 72.773438 181.011719 C 73.890625 182.023438 75.222656 182.609375 76.554688 182.769531 Z M 76.554688 182.769531 " fill-opacity="1" fill-rule="nonzero"/><path fill="#5e17eb" d="M 83.953125 204.492188 C 85.871094 202.414062 85.496094 198.902344 83.046875 196.664062 C 81.878906 195.546875 80.386719 194.90625 78.894531 194.855469 C 78.84375 194.855469 78.734375 194.855469 78.683594 194.855469 C 77.296875 194.855469 76.019531 195.386719 75.167969 196.292969 C 73.25 198.367188 73.625 201.882812 76.074219 204.117188 C 78.523438 206.40625 82.035156 206.566406 83.953125 204.492188 Z M 83.953125 204.492188 " fill-opacity="1" fill-rule="nonzero"/><path fill="#5e17eb" d="M 122.339844 200.070312 C 123.195312 201.082031 124.046875 202.042969 124.949219 202.945312 C 128.625 206.726562 132.722656 209.816406 137.089844 212.050781 C 145.289062 216.257812 153.488281 216.898438 160.464844 214.019531 C 159.609375 214.128906 158.757812 214.179688 157.90625 214.179688 C 148.109375 214.179688 137.515625 208.804688 129.15625 199.484375 C 128.996094 199.328125 128.890625 199.167969 128.730469 199.007812 C 126.546875 196.503906 124.472656 193.734375 122.660156 190.703125 C 122.554688 190.488281 122.394531 190.273438 122.289062 190.0625 C 122.234375 190.007812 122.234375 189.902344 122.183594 189.847656 C 121.648438 188.890625 121.117188 187.984375 120.585938 186.972656 C 118.453125 182.820312 116.859375 178.5625 115.792969 174.300781 C 115.6875 173.929688 115.632812 173.609375 115.527344 173.238281 C 113.824219 165.785156 113.769531 158.542969 115.261719 152.152344 C 115.367188 151.78125 115.421875 151.460938 115.527344 151.089844 C 117.125 145.074219 120.160156 139.90625 124.472656 136.289062 C 123.9375 136.5 123.460938 136.714844 122.925781 136.980469 C 117.441406 139.800781 113.398438 144.699219 111.054688 151.089844 C 110.949219 151.460938 110.839844 151.78125 110.679688 152.152344 C 110.097656 154.015625 109.617188 155.933594 109.296875 158.011719 C 108.550781 162.910156 108.710938 168.074219 109.617188 173.289062 C 109.667969 173.664062 109.777344 173.984375 109.828125 174.355469 C 110.839844 179.359375 112.597656 184.367188 115.101562 189.210938 C 115.3125 189.582031 115.472656 189.957031 115.6875 190.328125 C 115.738281 190.433594 115.792969 190.488281 115.847656 190.59375 C 117.496094 193.628906 119.359375 196.453125 121.4375 199.058594 C 121.753906 199.378906 122.074219 199.699219 122.339844 200.070312 Z M 122.339844 200.070312 " fill-opacity="1" fill-rule="nonzero"/><path fill="#5e17eb" d="M 176.277344 158.4375 C 175.15625 156.253906 173.933594 154.175781 172.601562 152.261719 L 168.34375 156.304688 L 168.289062 156.359375 C 169.195312 157.742188 170.046875 159.179688 170.792969 160.671875 C 173.082031 165.089844 174.519531 169.671875 175.265625 174.144531 C 175.585938 176.164062 175.742188 178.136719 175.796875 180.050781 C 175.902344 189.902344 172.015625 198.367188 164.722656 202.253906 C 164.617188 202.308594 164.5625 202.359375 164.457031 202.414062 C 164.351562 202.46875 164.296875 202.46875 164.191406 202.519531 C 164.082031 202.574219 163.976562 202.628906 163.871094 202.679688 C 163.816406 202.734375 163.765625 202.734375 163.710938 202.789062 C 154.445312 206.992188 142.734375 202.945312 133.949219 193.363281 C 133.734375 193.148438 133.523438 192.882812 133.308594 192.671875 C 133.097656 192.457031 132.9375 192.246094 132.722656 191.980469 C 130.539062 189.371094 128.570312 186.441406 126.921875 183.195312 C 125.429688 180.265625 124.3125 177.335938 123.460938 174.355469 C 123.351562 173.984375 123.246094 173.664062 123.195312 173.289062 C 119.734375 159.609375 123.460938 146.511719 133.257812 141.453125 C 135.492188 140.28125 137.886719 139.640625 140.390625 139.480469 C 140.605469 139.480469 140.816406 139.480469 141.03125 139.429688 C 141.242188 139.429688 141.457031 139.429688 141.667969 139.429688 C 144.648438 139.429688 147.683594 140.015625 150.71875 141.238281 C 151.996094 141.71875 153.222656 142.355469 154.445312 143.050781 C 154.660156 143.15625 154.820312 143.261719 155.03125 143.367188 C 155.246094 143.476562 155.40625 143.582031 155.617188 143.742188 C 156.46875 144.273438 157.269531 144.804688 158.121094 145.445312 C 159.609375 146.5625 161.101562 147.839844 162.488281 149.226562 C 163.550781 150.289062 164.617188 151.460938 165.574219 152.6875 L 165.789062 152.527344 L 169.832031 148.585938 C 165.308594 142.941406 159.929688 138.523438 154.339844 135.648438 C 154.128906 135.542969 153.96875 135.433594 153.753906 135.382812 C 153.542969 135.277344 153.382812 135.167969 153.167969 135.117188 C 151.785156 134.476562 150.398438 133.890625 148.960938 133.464844 C 144.648438 132.082031 140.335938 131.601562 136.238281 132.242188 C 136.023438 132.292969 135.863281 132.292969 135.652344 132.347656 C 135.4375 132.402344 135.28125 132.402344 135.066406 132.453125 C 133.683594 132.71875 132.296875 133.144531 130.96875 133.730469 C 130.382812 133.945312 129.847656 134.210938 129.261719 134.53125 C 128.730469 134.796875 128.25 135.0625 127.773438 135.382812 C 122.234375 138.789062 118.453125 144.433594 116.589844 151.300781 C 116.484375 151.675781 116.378906 151.992188 116.324219 152.367188 C 114.78125 158.703125 114.835938 165.996094 116.589844 173.449219 C 116.699219 173.824219 116.75 174.144531 116.859375 174.515625 C 117.871094 178.5625 119.414062 182.660156 121.488281 186.707031 C 122.074219 187.824219 122.660156 188.890625 123.300781 189.957031 C 123.40625 190.167969 123.566406 190.382812 123.671875 190.59375 C 123.777344 190.808594 123.9375 191.019531 124.046875 191.234375 C 132.671875 204.96875 145.820312 213.328125 157.800781 213.328125 C 159.769531 213.328125 161.6875 213.117188 163.550781 212.636719 C 164.082031 212.53125 164.5625 212.371094 165.09375 212.210938 C 165.148438 212.210938 165.203125 212.15625 165.253906 212.15625 C 165.363281 212.105469 165.519531 212.105469 165.628906 212.050781 C 165.679688 212.050781 165.734375 212 165.789062 212 C 165.894531 211.945312 166 211.890625 166.105469 211.890625 C 166.375 211.785156 166.640625 211.679688 166.851562 211.570312 C 167.382812 211.359375 167.863281 211.144531 168.394531 210.878906 C 183.570312 202.839844 187.085938 179.46875 176.277344 158.4375 Z M 176.277344 158.4375 " fill-opacity="1" fill-rule="nonzero"/><path fill="#5e17eb" d="M 157.640625 160.300781 L 158.121094 159.820312 L 161.050781 156.945312 C 159.824219 155.507812 158.492188 154.175781 157.054688 153.058594 C 156.84375 152.898438 156.628906 152.738281 156.417969 152.578125 C 156.203125 152.417969 155.992188 152.261719 155.832031 152.101562 C 154.765625 151.300781 153.703125 150.664062 152.582031 150.078125 C 151.09375 149.277344 149.601562 148.691406 148.109375 148.320312 C 147.84375 148.265625 147.578125 148.160156 147.3125 148.105469 C 147.046875 148.054688 146.78125 148 146.511719 147.949219 C 143.160156 147.363281 139.859375 147.679688 136.929688 149.226562 C 127.664062 153.964844 125.535156 168.179688 132.085938 181.011719 C 135.332031 187.292969 140.070312 192.085938 145.128906 194.746094 C 145.929688 195.171875 146.726562 195.546875 147.523438 195.867188 C 149.390625 196.609375 151.253906 197.035156 153.117188 197.144531 C 153.914062 197.195312 154.660156 197.195312 155.40625 197.144531 C 157.269531 196.984375 159.027344 196.503906 160.675781 195.652344 C 161.15625 195.386719 161.632812 195.121094 162.058594 194.800781 C 162.167969 194.746094 162.21875 194.695312 162.328125 194.640625 C 162.488281 194.535156 162.644531 194.375 162.804688 194.269531 C 162.964844 194.160156 163.125 194.003906 163.285156 193.894531 C 170.261719 187.984375 171.378906 175.367188 165.519531 163.867188 C 164.933594 162.75 164.296875 161.683594 163.65625 160.671875 L 159.398438 164.71875 C 159.664062 165.144531 159.929688 165.625 160.144531 166.101562 C 163.125 171.90625 163.496094 178.136719 161.527344 182.609375 C 161.421875 182.875 161.261719 183.195312 161.101562 183.460938 C 160.941406 183.726562 160.835938 183.9375 160.675781 184.207031 C 160.464844 184.523438 160.25 184.898438 159.984375 185.164062 C 159.132812 186.230469 158.066406 187.132812 156.84375 187.773438 C 150.558594 191.019531 141.773438 186.546875 137.300781 177.816406 C 132.832031 169.085938 134.269531 159.339844 140.605469 156.09375 C 144.757812 153.964844 149.972656 155.1875 154.339844 158.753906 C 155.191406 159.449219 155.992188 160.246094 156.789062 161.097656 L 157.109375 160.777344 Z M 157.640625 160.300781 " fill-opacity="1" fill-rule="nonzero"/><path fill="#5e17eb" d="M 146.460938 166.742188 C 147.417969 166.261719 148.535156 166.316406 149.65625 166.847656 C 149.921875 167.007812 150.1875 167.167969 150.398438 167.328125 L 152.957031 164.824219 C 150.242188 162.164062 146.726562 161.097656 144.011719 162.484375 C 140.285156 164.398438 139.433594 170.148438 142.042969 175.3125 C 144.703125 180.480469 149.867188 183.140625 153.59375 181.222656 C 157.320312 179.308594 158.171875 173.558594 155.566406 168.390625 C 155.566406 168.390625 155.566406 168.339844 155.566406 168.339844 L 152.796875 171 C 153.007812 171.746094 153.007812 172.492188 152.902344 173.238281 C 152.691406 174.460938 152.105469 175.421875 151.144531 175.898438 C 150.71875 176.113281 150.242188 176.21875 149.761719 176.21875 C 149.175781 176.21875 148.589844 176.058594 147.953125 175.738281 C 146.886719 175.207031 145.980469 174.25 145.34375 173.023438 C 144.703125 171.851562 144.492188 170.523438 144.648438 169.351562 C 144.863281 168.179688 145.503906 167.222656 146.460938 166.742188 Z M 146.460938 166.742188 " fill-opacity="1" fill-rule="nonzero"/><path fill="#5e17eb" d="M 72.242188 108.121094 L 119.890625 108.121094 C 119.625 106.683594 119.519531 105.246094 119.519531 103.808594 L 71.601562 103.808594 C 71.496094 103.808594 71.335938 103.808594 71.230469 103.863281 C 70.21875 104.023438 69.578125 104.980469 69.738281 105.992188 C 69.949219 107.21875 71.015625 108.121094 72.242188 108.121094 Z M 72.242188 108.121094 " fill-opacity="1" fill-rule="nonzero"/><path fill="#5e17eb" d="M 120.957031 108.121094 C 121.382812 110.199219 122.128906 112.222656 123.246094 114.191406 C 123.300781 114.246094 123.300781 114.296875 123.351562 114.40625 C 124.152344 115.734375 125.058594 117.011719 126.121094 118.238281 C 126.546875 118.71875 126.972656 119.144531 127.453125 119.621094 C 131.339844 123.242188 136.183594 125.320312 141.136719 125.480469 C 143.210938 125.53125 145.234375 125.265625 147.046875 124.679688 C 147.472656 124.519531 147.898438 124.359375 148.324219 124.203125 C 147.898438 124.253906 147.417969 124.308594 146.941406 124.359375 C 146.460938 124.414062 145.980469 124.414062 145.503906 124.414062 C 145.289062 124.414062 145.023438 124.414062 144.808594 124.414062 C 139.59375 124.253906 134.480469 122.019531 130.433594 118.238281 C 129.050781 116.960938 127.878906 115.523438 126.867188 114.03125 C 125.640625 112.167969 124.683594 110.144531 124.046875 108.121094 C 123.621094 106.683594 123.351562 105.246094 123.246094 103.808594 C 122.875 99.390625 124.046875 95.078125 126.761719 91.671875 C 126.015625 92.203125 125.324219 92.839844 124.632812 93.535156 C 121.96875 96.355469 120.636719 100.027344 120.53125 103.808594 C 120.585938 105.246094 120.691406 106.683594 120.957031 108.121094 Z M 120.957031 108.121094 " fill-opacity="1" fill-rule="nonzero"/><path fill="#5e17eb" d="M 129.847656 108.121094 C 130.699219 110.410156 132.136719 112.542969 134.054688 114.40625 C 134.320312 114.671875 134.585938 114.882812 134.90625 115.148438 C 135.226562 115.417969 135.597656 115.683594 135.917969 115.949219 C 139.007812 118.078125 142.519531 119.089844 145.820312 118.824219 C 146.40625 118.769531 146.941406 118.71875 147.523438 118.609375 C 147.898438 118.558594 148.269531 118.449219 148.644531 118.34375 C 148.960938 118.238281 149.28125 118.132812 149.601562 118.023438 C 149.867188 117.917969 150.1875 117.8125 150.453125 117.652344 C 150.613281 117.546875 150.773438 117.492188 150.933594 117.386719 C 151.09375 117.28125 151.253906 117.171875 151.410156 117.121094 C 152.265625 116.585938 153.0625 115.949219 153.808594 115.203125 C 157.269531 111.476562 157.800781 105.992188 155.671875 101.09375 C 154.871094 99.285156 153.703125 97.527344 152.15625 95.984375 C 151.996094 95.824219 151.835938 95.664062 151.679688 95.503906 C 150.398438 94.332031 149.015625 93.375 147.578125 92.683594 C 147.367188 92.574219 147.207031 92.523438 146.992188 92.414062 C 146.78125 92.308594 146.621094 92.253906 146.40625 92.148438 C 143.851562 91.136719 141.136719 90.816406 138.632812 91.242188 C 136.078125 91.671875 133.734375 92.839844 131.925781 94.8125 C 129.636719 97.261719 128.625 100.5625 128.835938 103.914062 C 128.996094 105.246094 129.316406 106.738281 129.847656 108.121094 Z M 141.1875 92.628906 C 142.199219 92.46875 143.160156 93.214844 143.320312 94.226562 L 144.648438 103.542969 L 148.589844 105.351562 L 149.175781 105.621094 L 149.761719 105.886719 L 153.96875 107.800781 C 154.925781 108.226562 155.296875 109.347656 154.871094 110.25 C 154.554688 110.945312 153.859375 111.316406 153.167969 111.316406 C 152.902344 111.316406 152.636719 111.261719 152.371094 111.15625 L 150.398438 110.25 L 149.816406 109.984375 L 149.230469 109.71875 L 143.320312 107.003906 L 141.1875 106.046875 L 139.59375 94.703125 C 139.484375 94.066406 139.75 93.480469 140.125 93.109375 C 140.445312 92.894531 140.816406 92.683594 141.1875 92.628906 Z M 141.1875 92.628906 " fill-opacity="1" fill-rule="nonzero"/><g clip-path="url(#09eac8817a)"><path fill="#000000" d="M 144.597656 103.542969 L 148.535156 105.351562 L 149.121094 105.621094 L 149.707031 105.886719 L 153.914062 107.800781 C 154.871094 108.226562 155.246094 109.347656 154.820312 110.25 C 154.5 110.945312 153.808594 111.316406 153.117188 111.316406 C 152.847656 111.316406 152.582031 111.261719 152.316406 111.15625 L 150.347656 110.25 L 149.175781 109.71875 L 143.265625 107.003906 L 141.136719 106.046875 L 139.539062 94.703125 C 139.433594 94.066406 139.699219 93.480469 140.070312 93.109375 C 140.335938 92.839844 140.710938 92.683594 141.082031 92.628906 C 142.09375 92.46875 143.054688 93.214844 143.210938 94.226562 Z M 83.847656 195.867188 C 86.667969 198.527344 87.09375 202.734375 84.804688 205.238281 C 83.6875 206.460938 82.144531 207.046875 80.492188 207.046875 C 78.734375 207.046875 76.871094 206.355469 75.433594 204.96875 C 72.613281 202.308594 72.1875 198.101562 74.476562 195.597656 C 75.433594 194.589844 76.710938 193.949219 78.148438 193.84375 L 76.765625 183.886719 C 75.0625 183.78125 73.464844 183.035156 72.132812 181.808594 C 69.3125 179.148438 68.886719 174.941406 71.175781 172.4375 C 72.132812 171.425781 73.410156 170.789062 74.847656 170.683594 L 73.464844 160.671875 C 71.761719 160.566406 70.164062 159.820312 68.832031 158.597656 C 66.011719 155.933594 65.585938 151.726562 67.875 149.226562 C 68.832031 148.214844 70.109375 147.574219 71.546875 147.46875 L 70.164062 137.511719 C 68.460938 137.40625 66.863281 136.660156 65.53125 135.433594 C 62.710938 132.773438 62.285156 128.566406 64.574219 126.066406 C 65.691406 124.839844 67.289062 124.203125 69.097656 124.253906 C 70.855469 124.308594 72.558594 125.054688 73.945312 126.332031 C 74.371094 126.757812 74.742188 127.183594 75.0625 127.660156 C 76.605469 126.492188 78.257812 125.53125 80.226562 125.054688 C 80.8125 124.894531 81.398438 124.839844 81.984375 124.734375 L 82.089844 124.945312 C 81.984375 125.054688 81.878906 125.160156 81.769531 125.210938 C 79.429688 126.066406 77.566406 127.449219 75.914062 129.097656 C 76.871094 131.390625 76.605469 133.996094 74.957031 135.753906 C 73.996094 136.765625 72.71875 137.40625 71.28125 137.511719 L 72.667969 147.46875 C 74.371094 147.574219 75.96875 148.320312 77.296875 149.542969 C 77.617188 149.863281 77.9375 150.183594 78.203125 150.554688 C 79.800781 149.332031 81.503906 148.320312 83.582031 147.734375 C 84.167969 147.574219 84.753906 147.523438 85.339844 147.414062 L 85.445312 147.628906 C 85.339844 147.734375 85.230469 147.839844 85.125 147.894531 C 82.730469 148.746094 80.8125 150.183594 79.109375 151.941406 C 80.226562 154.335938 80.015625 157.105469 78.308594 158.914062 C 77.351562 159.925781 76.074219 160.566406 74.636719 160.671875 L 76.019531 170.628906 C 77.722656 170.734375 79.320312 171.480469 80.652344 172.707031 C 83.472656 175.367188 83.902344 179.574219 81.609375 182.074219 C 80.652344 183.085938 79.375 183.726562 77.9375 183.832031 L 79.320312 193.789062 C 80.867188 193.894531 82.515625 194.640625 83.847656 195.867188 Z M 65.476562 126.863281 C 63.5625 128.941406 63.933594 132.453125 66.382812 134.691406 C 67.554688 135.808594 69.046875 136.445312 70.535156 136.5 C 72.027344 136.554688 73.359375 136.019531 74.261719 135.0625 C 75.488281 133.730469 75.753906 131.816406 75.167969 130.003906 C 74.957031 130.269531 74.742188 130.484375 74.476562 130.75 C 73.410156 131.921875 72.453125 133.199219 71.496094 134.421875 C 70.960938 135.117188 70.058594 134.957031 69.523438 134.15625 C 69.097656 133.519531 68.726562 132.878906 68.246094 132.347656 C 67.820312 131.867188 67.34375 131.441406 66.863281 131.070312 C 66.703125 130.910156 66.542969 130.695312 66.542969 130.539062 C 66.597656 130.003906 66.703125 129.417969 66.863281 128.886719 C 66.917969 128.671875 67.128906 128.566406 67.34375 128.621094 C 67.394531 128.621094 67.394531 128.621094 67.449219 128.671875 C 68.832031 129.257812 69.472656 130.429688 70.164062 131.65625 C 70.269531 131.867188 70.535156 131.976562 70.804688 131.867188 C 70.804688 131.867188 70.855469 131.867188 70.855469 131.816406 C 71.601562 131.121094 72.347656 130.429688 73.039062 129.792969 C 73.519531 129.367188 73.996094 128.941406 74.476562 128.566406 C 74.210938 128.140625 73.835938 127.714844 73.464844 127.34375 C 72.292969 126.222656 70.804688 125.585938 69.3125 125.53125 C 69.257812 125.53125 69.152344 125.53125 69.097656 125.53125 C 67.609375 125.425781 66.332031 125.90625 65.476562 126.863281 Z M 73.304688 159.609375 C 73.464844 159.609375 73.570312 159.660156 73.730469 159.660156 C 73.945312 159.660156 74.15625 159.660156 74.371094 159.660156 C 75.59375 159.554688 76.660156 159.074219 77.457031 158.222656 C 78.789062 156.785156 79.003906 154.710938 78.257812 152.792969 C 78.097656 153.003906 77.882812 153.164062 77.722656 153.378906 C 76.660156 154.550781 75.699219 155.828125 74.742188 157.050781 C 74.582031 157.265625 74.371094 157.371094 74.15625 157.425781 C 73.785156 157.53125 73.359375 157.371094 73.039062 157.050781 C 72.933594 156.945312 72.878906 156.890625 72.824219 156.785156 C 72.398438 156.148438 72.027344 155.507812 71.546875 154.976562 C 71.121094 154.496094 70.644531 154.070312 70.164062 153.699219 C 70.003906 153.539062 69.84375 153.324219 69.84375 153.164062 C 69.898438 152.632812 70.003906 152.046875 70.164062 151.515625 C 70.21875 151.300781 70.429688 151.195312 70.644531 151.25 C 70.695312 151.25 70.695312 151.25 70.75 151.300781 C 71.496094 151.621094 72.027344 152.152344 72.507812 152.738281 C 72.878906 153.21875 73.144531 153.75 73.464844 154.285156 C 73.519531 154.441406 73.679688 154.496094 73.835938 154.496094 C 73.945312 154.496094 73.996094 154.496094 74.105469 154.441406 C 74.105469 154.441406 74.15625 154.441406 74.15625 154.390625 C 74.902344 153.699219 75.648438 153.003906 76.339844 152.367188 C 76.710938 151.992188 77.136719 151.675781 77.566406 151.300781 C 77.351562 150.980469 77.03125 150.664062 76.765625 150.398438 C 75.699219 149.386719 74.371094 148.800781 73.039062 148.640625 C 72.878906 148.640625 72.773438 148.585938 72.613281 148.585938 C 72.398438 148.585938 72.1875 148.585938 71.972656 148.585938 C 70.75 148.691406 69.683594 149.171875 68.886719 150.023438 C 66.96875 152.101562 67.34375 155.613281 69.792969 157.851562 C 70.644531 158.863281 71.972656 159.449219 73.304688 159.609375 Z M 76.554688 182.769531 C 76.710938 182.769531 76.820312 182.820312 76.980469 182.820312 C 77.191406 182.820312 77.40625 182.820312 77.617188 182.820312 C 78.84375 182.714844 79.90625 182.234375 80.707031 181.382812 C 82.621094 179.308594 82.25 175.792969 79.800781 173.558594 C 78.734375 172.546875 77.40625 171.960938 76.074219 171.800781 C 75.914062 171.800781 75.808594 171.746094 75.648438 171.746094 C 75.59375 171.746094 75.488281 171.746094 75.433594 171.746094 C 75.273438 171.746094 75.117188 171.746094 74.957031 171.746094 C 73.730469 171.851562 72.667969 172.332031 71.867188 173.183594 C 69.949219 175.261719 70.324219 178.773438 72.773438 181.011719 C 73.890625 182.023438 75.222656 182.609375 76.554688 182.769531 Z M 83.953125 204.492188 C 85.871094 202.414062 85.496094 198.902344 83.046875 196.664062 C 81.878906 195.546875 80.386719 194.90625 78.894531 194.855469 C 78.84375 194.855469 78.734375 194.855469 78.683594 194.855469 C 77.296875 194.855469 76.019531 195.386719 75.167969 196.292969 C 73.25 198.367188 73.625 201.882812 76.074219 204.117188 C 78.523438 206.40625 82.035156 206.566406 83.953125 204.492188 Z M 175.691406 149.277344 L 173.402344 151.460938 C 174.785156 153.484375 176.0625 155.613281 177.234375 157.902344 C 188.308594 179.46875 184.582031 203.53125 168.980469 211.519531 C 168.128906 211.945312 167.277344 212.316406 166.375 212.636719 L 166.691406 214.605469 L 166.691406 214.660156 C 166.691406 217.269531 165.628906 219.613281 163.976562 221.316406 C 162.273438 223.074219 159.824219 224.191406 157.214844 224.191406 L 72.667969 224.191406 C 67.449219 224.191406 63.1875 219.929688 63.136719 214.714844 L 43.96875 91.242188 L 43.96875 91.191406 C 43.96875 87.996094 45.566406 85.175781 47.960938 83.472656 C 49.503906 82.351562 51.421875 81.660156 53.5 81.660156 L 76.820312 81.660156 L 76.605469 80.59375 C 76.605469 79.902344 78.417969 77.828125 79.585938 77.242188 C 79.800781 76.496094 80.546875 75.964844 81.34375 76.070312 L 85.125 76.070312 C 85.179688 76.070312 85.179688 76.015625 85.230469 76.015625 C 86.777344 72.503906 92.632812 70.054688 99.289062 70.054688 C 105.996094 70.054688 111.851562 72.554688 113.449219 76.015625 L 118.347656 76.015625 C 119.253906 75.910156 120 76.550781 120.160156 77.453125 L 121.011719 81.660156 L 137.941406 81.660156 C 141.402344 81.660156 144.382812 83.523438 146.085938 86.238281 C 149.390625 87.199219 152.582031 88.953125 155.351562 91.5625 C 159.398438 95.34375 161.953125 100.296875 162.488281 105.511719 C 163.019531 110.730469 161.527344 115.574219 158.171875 119.144531 C 156.578125 120.898438 154.605469 122.230469 152.421875 123.082031 C 152.421875 123.082031 152.421875 123.082031 152.371094 123.082031 L 154.128906 134.210938 C 160.039062 137.085938 165.734375 141.664062 170.578125 147.628906 L 172.390625 145.871094 L 172.28125 139.003906 L 191.449219 119.25 L 191.183594 130.21875 L 202.363281 130.269531 L 183.675781 149.277344 Z M 168.449219 210.613281 C 183.515625 202.894531 187.03125 179.46875 176.222656 158.4375 C 175.105469 156.253906 173.878906 154.175781 172.550781 152.261719 L 168.289062 156.304688 L 168.238281 156.359375 L 167.917969 156.679688 L 167.542969 157.050781 L 163.710938 160.671875 L 159.453125 164.71875 L 158.917969 165.25 L 158.441406 165.675781 L 157.960938 166.101562 L 156.308594 167.648438 L 155.511719 168.390625 L 152.742188 171.054688 C 152.957031 171.800781 152.957031 172.546875 152.847656 173.289062 C 152.636719 174.515625 152.050781 175.472656 151.09375 175.953125 C 150.667969 176.164062 150.1875 176.273438 149.707031 176.273438 C 149.121094 176.273438 148.535156 176.113281 147.898438 175.792969 C 146.832031 175.261719 145.929688 174.300781 145.289062 173.078125 C 144.648438 171.90625 144.4375 170.574219 144.597656 169.402344 C 144.808594 168.179688 145.394531 167.222656 146.355469 166.742188 C 147.3125 166.261719 148.429688 166.316406 149.546875 166.847656 C 149.816406 167.007812 150.082031 167.167969 150.292969 167.328125 L 152.847656 164.824219 L 155.140625 162.589844 L 156.734375 161.046875 L 158.015625 159.765625 L 160.941406 156.890625 L 164.882812 153.058594 L 165.46875 152.472656 L 165.679688 152.3125 L 169.726562 148.375 C 165.203125 142.730469 159.824219 138.3125 154.234375 135.433594 C 154.019531 135.328125 153.859375 135.222656 153.648438 135.167969 C 153.433594 135.0625 153.277344 134.957031 153.0625 134.902344 C 151.679688 134.265625 150.292969 133.679688 148.855469 133.253906 C 144.542969 131.867188 140.230469 131.390625 136.132812 132.027344 C 135.917969 132.082031 135.757812 132.082031 135.546875 132.132812 C 135.332031 132.1875 135.171875 132.1875 134.960938 132.242188 C 133.574219 132.507812 132.191406 132.933594 130.859375 133.519531 C 130.273438 133.730469 129.742188 133.996094 129.15625 134.316406 C 128.625 134.582031 128.144531 134.851562 127.664062 135.167969 C 122.128906 138.578125 118.347656 144.21875 116.484375 151.089844 C 116.378906 151.460938 116.273438 151.78125 116.21875 152.152344 C 114.675781 158.488281 114.726562 165.785156 116.484375 173.238281 C 116.589844 173.609375 116.644531 173.929688 116.75 174.300781 C 117.761719 178.347656 119.308594 182.449219 121.382812 186.496094 C 121.96875 187.613281 122.554688 188.679688 123.195312 189.742188 C 123.300781 189.957031 123.460938 190.167969 123.566406 190.382812 C 123.671875 190.59375 123.832031 190.808594 123.9375 191.019531 C 132.5625 204.757812 145.714844 213.117188 157.695312 213.117188 C 159.664062 213.117188 161.582031 212.902344 163.445312 212.425781 C 163.976562 212.316406 164.457031 212.15625 164.988281 212 C 165.042969 212 165.09375 211.945312 165.148438 211.945312 C 165.253906 211.890625 165.414062 211.890625 165.519531 211.839844 C 165.574219 211.839844 165.628906 211.785156 165.679688 211.785156 C 165.789062 211.730469 165.894531 211.679688 166 211.679688 C 166.265625 211.574219 166.53125 211.464844 166.746094 211.359375 C 167.4375 211.09375 167.96875 210.878906 168.449219 210.613281 Z M 72.667969 223.125 L 138.367188 223.125 L 124.152344 203.640625 C 123.035156 202.519531 122.023438 201.296875 121.011719 200.070312 C 120.746094 199.699219 120.425781 199.378906 120.160156 199.007812 C 118.296875 196.558594 116.539062 193.894531 114.992188 191.128906 L 114.621094 190.648438 L 114.675781 190.59375 C 114.515625 190.273438 114.355469 190.007812 114.195312 189.691406 C 111.640625 184.683594 109.828125 179.519531 108.816406 174.355469 C 108.765625 173.984375 108.65625 173.664062 108.605469 173.289062 C 107.648438 168.019531 107.539062 162.800781 108.285156 157.851562 C 108.605469 155.878906 109.03125 153.964844 109.617188 152.152344 C 109.722656 151.78125 109.828125 151.460938 109.988281 151.089844 C 112.386719 144.21875 116.699219 139.003906 122.5 136.019531 C 124.097656 135.222656 125.75 134.582031 127.398438 134.15625 C 127.878906 133.890625 128.359375 133.570312 128.835938 133.359375 C 130.648438 132.453125 132.511719 131.761719 134.425781 131.335938 L 125.324219 118.878906 C 124.203125 117.652344 123.246094 116.320312 122.449219 114.992188 L 122.128906 114.5625 L 122.183594 114.511719 C 121.0625 112.488281 120.265625 110.304688 119.890625 108.121094 C 119.625 106.683594 119.519531 105.246094 119.519531 103.808594 C 119.625 99.710938 121.0625 95.824219 123.886719 92.789062 C 125.535156 91.03125 127.453125 89.753906 129.582031 88.847656 C 129.847656 88.636719 130.0625 88.476562 130.328125 88.316406 C 134.320312 85.601562 139.433594 84.800781 144.4375 85.867188 C 142.894531 83.949219 140.496094 82.726562 137.886719 82.726562 L 121.171875 82.726562 L 122.183594 87.730469 L 122.765625 90.765625 L 122.765625 90.871094 C 122.714844 91.136719 122.609375 91.402344 122.5 91.617188 C 122.074219 92.683594 118.988281 95.398438 118.136719 95.398438 L 117.761719 95.398438 L 117.921875 96.089844 C 117.816406 96.675781 117.285156 97.101562 116.699219 97.046875 L 79.535156 97.046875 C 78.84375 96.996094 78.203125 96.621094 77.777344 96.089844 L 75.433594 84.429688 L 75.117188 82.726562 L 53.445312 82.726562 C 53.074219 82.726562 52.699219 82.777344 52.378906 82.777344 C 48.226562 83.3125 45.035156 86.824219 45.035156 91.085938 L 64.253906 214.554688 L 64.253906 214.605469 C 64.199219 219.34375 68.035156 223.125 72.667969 223.125 Z M 77.882812 81.660156 L 77.992188 82.191406 L 78.097656 82.726562 L 78.46875 84.640625 L 80.28125 93.691406 C 80.332031 94.066406 80.597656 94.277344 80.917969 94.226562 L 118.136719 94.226562 C 118.507812 94.121094 119.734375 93.109375 120.636719 92.253906 L 83.953125 92.253906 C 83.902344 92.253906 83.847656 92.253906 83.792969 92.253906 C 82.996094 92.253906 82.25 91.671875 82.144531 90.816406 L 80.917969 84.855469 L 80.492188 82.777344 L 80.28125 81.714844 L 79.640625 78.414062 C 78.949219 79 77.832031 80.167969 77.671875 80.59375 Z M 80.652344 78.039062 L 80.8125 78.839844 L 81.398438 81.660156 L 81.503906 82.191406 L 81.609375 82.726562 L 82.035156 84.910156 L 83.207031 90.660156 C 83.261719 91.03125 83.527344 91.242188 83.847656 91.191406 L 121.117188 91.191406 C 121.222656 91.191406 121.277344 91.191406 121.382812 91.136719 C 121.542969 91.085938 121.703125 90.925781 121.753906 90.765625 L 121.753906 90.660156 L 121.328125 88.636719 L 121.117188 87.625 L 120.105469 82.671875 L 120 82.140625 L 119.890625 81.605469 L 119.09375 77.5625 C 119.039062 77.1875 118.773438 76.976562 118.453125 77.027344 L 112.757812 77.027344 L 112.652344 76.65625 C 111.425781 73.515625 105.835938 71.117188 99.289062 71.117188 C 94.121094 71.117188 89.542969 72.609375 87.253906 74.84375 C 86.933594 75.164062 86.667969 75.429688 86.457031 75.804688 C 86.296875 76.070312 86.136719 76.335938 85.976562 76.65625 C 85.976562 76.707031 85.921875 76.707031 85.921875 76.761719 L 85.816406 77.136719 L 81.132812 77.136719 C 80.917969 77.136719 80.707031 77.1875 80.597656 77.402344 C 80.546875 77.453125 80.546875 77.507812 80.492188 77.613281 Z M 146.726562 87.625 C 146.511719 87.570312 146.246094 87.464844 146.035156 87.410156 C 145.820312 87.359375 145.554688 87.25 145.34375 87.199219 C 141.347656 86.132812 137.195312 86.292969 133.683594 87.785156 C 133.203125 87.996094 132.722656 88.210938 132.246094 88.476562 C 132.085938 88.527344 131.976562 88.636719 131.820312 88.6875 C 131.234375 89.007812 130.699219 89.378906 130.167969 89.804688 C 129.527344 90.285156 128.945312 90.816406 128.410156 91.402344 C 125.269531 94.757812 123.992188 99.230469 124.363281 103.808594 C 124.472656 105.246094 124.789062 106.683594 125.214844 108.121094 C 125.855469 110.144531 126.867188 112.113281 128.144531 113.980469 C 128.996094 115.203125 130.007812 116.375 131.179688 117.441406 C 135.066406 121.058594 139.910156 123.136719 144.863281 123.296875 C 145.503906 123.296875 146.140625 123.296875 146.78125 123.242188 C 148.324219 123.136719 149.761719 122.816406 151.144531 122.390625 C 151.304688 122.335938 151.464844 122.285156 151.679688 122.230469 C 151.730469 122.230469 151.785156 122.179688 151.835938 122.179688 C 151.945312 122.125 152.050781 122.070312 152.15625 122.019531 C 152.636719 121.804688 153.117188 121.59375 153.542969 121.324219 C 154.128906 121.007812 154.660156 120.632812 155.191406 120.261719 C 155.9375 119.730469 156.628906 119.089844 157.320312 118.398438 C 160.410156 115.042969 161.847656 110.519531 161.367188 105.621094 C 160.835938 100.667969 158.441406 95.984375 154.554688 92.363281 C 152.265625 90.179688 149.546875 88.582031 146.726562 87.625 Z M 115.527344 151.089844 C 117.125 145.074219 120.160156 139.90625 124.472656 136.289062 C 123.9375 136.5 123.460938 136.714844 122.925781 136.980469 C 117.441406 139.800781 113.398438 144.699219 111.054688 151.089844 C 110.949219 151.460938 110.839844 151.78125 110.679688 152.152344 C 110.097656 154.015625 109.617188 155.933594 109.296875 158.011719 C 108.550781 162.910156 108.710938 168.074219 109.617188 173.289062 C 109.667969 173.664062 109.777344 173.984375 109.828125 174.355469 C 110.839844 179.359375 112.597656 184.367188 115.101562 189.210938 C 115.3125 189.582031 115.472656 189.957031 115.6875 190.328125 C 115.738281 190.433594 115.792969 190.488281 115.847656 190.59375 C 117.496094 193.628906 119.359375 196.453125 121.4375 199.058594 C 121.703125 199.433594 122.023438 199.753906 122.289062 200.125 C 123.140625 201.136719 123.992188 202.09375 124.898438 203 C 128.570312 206.78125 132.671875 209.867188 137.035156 212.105469 C 145.234375 216.3125 153.433594 216.949219 160.410156 214.074219 C 159.558594 214.179688 158.707031 214.234375 157.855469 214.234375 C 148.058594 214.234375 137.460938 208.855469 129.101562 199.539062 C 128.945312 199.378906 128.835938 199.21875 128.675781 199.058594 C 126.496094 196.558594 124.417969 193.789062 122.609375 190.753906 C 122.5 190.542969 122.339844 190.328125 122.234375 190.117188 C 122.183594 190.0625 122.183594 189.957031 122.128906 189.902344 C 121.597656 188.945312 121.0625 188.039062 120.53125 187.027344 C 118.402344 182.875 116.804688 178.613281 115.738281 174.355469 C 115.632812 173.984375 115.578125 173.664062 115.472656 173.289062 C 113.769531 165.835938 113.714844 158.597656 115.207031 152.207031 C 115.367188 151.78125 115.472656 151.460938 115.527344 151.089844 Z M 123.351562 114.40625 C 124.152344 115.734375 125.058594 117.011719 126.121094 118.238281 C 126.546875 118.71875 126.972656 119.144531 127.453125 119.621094 C 131.339844 123.242188 136.183594 125.320312 141.136719 125.480469 C 143.210938 125.53125 145.234375 125.265625 147.046875 124.679688 C 147.472656 124.519531 147.898438 124.359375 148.324219 124.203125 C 147.898438 124.253906 147.417969 124.308594 146.941406 124.359375 C 146.460938 124.414062 145.980469 124.414062 145.503906 124.414062 C 145.289062 124.414062 145.023438 124.414062 144.808594 124.414062 C 139.59375 124.253906 134.480469 122.019531 130.433594 118.238281 C 129.050781 116.960938 127.878906 115.523438 126.867188 114.03125 C 125.640625 112.167969 124.683594 110.144531 124.046875 108.121094 C 123.621094 106.683594 123.351562 105.246094 123.246094 103.808594 C 122.875 99.390625 124.046875 95.078125 126.761719 91.671875 C 126.015625 92.203125 125.324219 92.839844 124.632812 93.535156 C 121.96875 96.355469 120.636719 100.027344 120.53125 103.808594 C 120.476562 105.246094 120.585938 106.683594 120.902344 108.121094 C 121.328125 110.199219 122.074219 112.222656 123.195312 114.191406 C 123.300781 114.246094 123.351562 114.296875 123.351562 114.40625 Z M 123.351562 114.40625 " fill-opacity="1" fill-rule="nonzero"/></g></svg>